<svg width="40" height="36" viewBox="0 0 40 36" fill="none" xmlns="http://www.w3.org/2000/svg">
<path d="M33.7936 16.9342C34.56 18.1791 33.641 19.7427 32.109 19.7981C26.5153 20.0035 20.8118 21.3138 15.4345 23.8936L13.6564 24.856C13.6564 24.8636 13.6319 24.8166 17.9605 31.8776C18.3577 32.5237 18.122 33.349 17.4339 33.7222L16.0314 34.4815C15.3434 34.854 14.4628 34.6329 14.0656 33.9868L9.74791 26.9727L9.04708 27.3527C7.67018 28.0977 5.90971 27.6555 5.11458 26.3641L1.87652 21.1038C1.08219 19.8124 1.55368 18.1612 2.93057 17.4154L9.31798 13.9563C14.1994 10.9946 18.336 7.07301 21.4367 2.45993C22.2542 1.24343 24.1569 1.27866 24.9233 2.52364L27.6939 7.02534C29.2857 6.16337 31.3219 6.6753 32.2409 8.16838C33.1599 9.66145 32.6141 11.5705 31.0222 12.4325L33.7936 16.9342Z" fill="#D1E7FF"/>
<path d="M32.2408 8.16835C33.1597 9.66144 32.6139 11.5705 31.0221 12.4325L27.6937 7.0253C29.2856 6.16333 31.3218 6.67527 32.2408 8.16835Z" fill="#D1E7FF"/>
<path d="M24.9233 2.52361C25.3056 3.14527 25.2812 3.91646 24.858 4.51444C21.4448 9.33821 16.87 13.697 11.275 17.0923L3.79123 21.145C3.27739 21.4238 2.87063 21.8098 2.58615 22.2558L1.87652 21.1038C1.08219 19.8123 1.55368 18.1611 2.93057 17.4153L9.31798 13.9562C14.1994 10.9945 18.336 7.07297 21.4367 2.4599C22.2542 1.24341 24.1569 1.27871 24.9233 2.52361V2.52361Z" fill="#E8F3FF"/>
<path d="M9.31798 13.9563L15.4345 23.8936C14.2088 24.557 10.271 26.689 9.04708 27.3527C7.67018 28.0977 5.90971 27.6555 5.11458 26.364L1.87652 21.1038C1.08219 19.8124 1.55368 18.1612 2.93057 17.4154L9.31798 13.9563Z" fill="#B9DCFF"/>
<path d="M11.2549 17.1036C3.12743 21.5044 3.66604 21.1982 3.40385 21.3896C2.91007 21.7499 2.18942 21.6119 1.8764 21.1038C1.08207 19.8123 1.55355 18.1611 2.93045 17.4154L9.31786 13.9563L11.2549 17.1036Z" fill="#D1E7FF"/>
<path d="M14.8207 26.7554C12.5467 27.9904 14.2197 27.0816 10.9161 28.8698L9.7478 26.9728L13.6563 24.8569L14.8207 26.7554Z" fill="#B9DCFF"/>
<path d="M32.0418 11.575C31.7781 11.9146 31.4352 12.2091 31.0221 12.4325L27.6937 7.02547C28.1069 6.80136 28.5504 6.67095 28.9955 6.62598C29.163 6.8982 31.8956 11.3377 32.0418 11.575V11.575Z" fill="#B9DCFF"/>
<path d="M31.8695 12.6093C34.3644 10.6979 33.5026 6.91784 30.385 6.13443C29.5704 5.92974 28.7271 5.97231 27.954 6.24851L25.4769 2.2242C24.4688 0.586544 21.9688 0.543146 20.8954 2.13988C17.8486 6.6726 13.7895 10.5277 8.97043 13.4532C8.69601 13.6195 8.59428 13.9631 8.75667 14.2427C8.78272 14.2875 12.8859 20.9525 12.9131 20.9967C13.0895 21.2833 13.4803 21.3818 13.7864 21.2162C14.0921 21.0506 14.1969 20.6838 14.0203 20.3971L10.1726 14.146C14.7676 11.2648 18.8372 7.45031 21.977 2.77945C22.5386 1.94395 23.8438 1.96988 24.3695 2.82382L33.2395 17.2337C33.7658 18.0887 33.1348 19.1609 32.0842 19.1992C26.1901 19.4146 20.4193 20.8286 15.1433 23.3597C15.1208 23.3704 9.13889 26.6102 8.72694 26.8333C7.65763 27.4124 6.28553 27.0675 5.66828 26.0646L2.43015 20.8038C1.81282 19.801 2.1805 18.514 3.24973 17.935L7.14699 15.8245C7.45273 15.659 7.5575 15.2922 7.38097 15.0055C7.20444 14.7186 6.81335 14.6204 6.50769 14.786L2.61043 16.8964C0.930667 17.806 0.353059 19.8279 1.32288 21.4035L4.5611 26.6641C5.53099 28.2398 7.68664 28.7814 9.3664 27.8718L9.51384 27.7919L13.5118 34.2869C14.086 35.2198 15.3558 35.5393 16.3511 35.0005L17.7533 34.2411C18.7482 33.7024 19.0885 32.5113 18.5141 31.5781L15.6806 26.975C15.5041 26.6882 15.1131 26.5899 14.8073 26.7555C14.5016 26.9211 14.3968 27.2878 14.5733 27.5746L17.4068 32.1777C17.6278 32.5368 17.4969 32.9952 17.114 33.2025L15.7118 33.9619C15.3289 34.1692 14.8402 34.0463 14.6191 33.6872L10.6212 27.1923L15.74 24.4203C20.749 22.0199 26.3215 20.6099 32.1341 20.3975C34.1485 20.3238 35.3533 18.2689 34.3468 16.634L31.8695 12.6093ZM31.6869 8.46788C32.318 9.49324 32.0913 10.7656 31.2176 11.5503L28.6057 7.307C29.7507 6.99197 31.0456 7.42595 31.6869 8.46788ZM37.9397 5.80202L36.2856 6.69778C35.9796 6.86343 35.5888 6.76502 35.4123 6.47832C35.2357 6.19155 35.3405 5.8248 35.6463 5.65923L37.3004 4.76346C37.6064 4.59782 37.9972 4.69623 38.1737 4.98293C38.3502 5.2697 38.2455 5.63644 37.9397 5.80202ZM30.826 2.38445L31.2294 0.972628C31.3209 0.652728 31.6712 0.463021 32.0125 0.548618C32.3536 0.634365 32.5559 0.963184 32.4645 1.28301L32.0611 2.69483C31.9699 3.0139 31.6202 3.20459 31.278 3.11884C30.937 3.03309 30.7347 2.70435 30.826 2.38445V2.38445ZM39.1874 12.2047C39.1108 12.4726 38.8525 12.6493 38.5702 12.6493C38.4545 12.6493 38.5355 12.6617 36.8991 12.2504C36.558 12.1646 36.3556 11.8359 36.447 11.516C36.5384 11.1961 36.889 11.0065 37.23 11.092L38.7353 11.4703C39.0763 11.556 39.2788 11.8848 39.1874 12.2047Z" fill="#007FFC"/>
</svg>
