<svg width="40" height="37" viewBox="0 0 40 37" fill="none" xmlns="http://www.w3.org/2000/svg">
<path d="M36.621 13.8462V33.5073C36.621 34.8314 35.4762 35.9052 34.0645 35.9052H5.94246C4.53076 35.9052 3.38591 34.8314 3.38591 33.5073C3.38591 14.9202 3.38423 18.4021 3.3915 13.8462H36.621Z" fill="#D1E7FF"/>
<path d="M36.6209 13.8462V18.3871C36.6209 19.3698 35.7811 20.1838 34.7334 20.1878C34.7217 20.1879 5.2937 20.1879 5.27245 20.1878C4.22506 20.1835 3.38579 19.3695 3.38579 18.3871C3.38579 17.0765 3.38483 17.9813 3.39138 13.8462H36.6209Z" fill="#B9DCFF"/>
<path d="M26.4746 25.1894V35.905H13.532V25.1894C13.532 23.8653 14.6768 22.7915 16.0885 22.7915H23.918C25.3297 22.7915 26.4746 23.8653 26.4746 25.1894Z" fill="#E8F3FF"/>
<path d="M38.5382 13.8461C38.5382 16.2452 36.4639 18.1923 33.9044 18.1923C31.3455 18.1923 29.2707 16.2462 29.2707 13.8461C29.2707 16.2462 27.1959 18.1923 24.6369 18.1923C22.078 18.1923 20.0032 16.2462 20.0032 13.8461C20.0032 16.2462 17.9284 18.1923 15.3695 18.1923C12.8105 18.1923 10.7357 16.2462 10.7357 13.8461C10.7317 16.2305 8.63935 18.1923 6.10197 18.1923C3.56772 18.1923 1.47223 16.233 1.46824 13.8461C1.46824 10.0688 1.45721 10.3012 1.4962 10.1278C1.53455 9.95767 1.26875 10.5602 5.28867 1.85811C5.4916 1.41974 5.95258 1.13574 6.46149 1.13574H33.5449C34.0538 1.13574 34.5148 1.41974 34.7177 1.85811C38.7406 10.5667 38.4718 9.95752 38.5102 10.1278C38.5491 10.3009 38.5382 10.0647 38.5382 13.8461Z" fill="#B9DCFF"/>
<path d="M38.5383 13.8461C38.5383 16.2452 36.4641 18.1922 33.9046 18.1922C31.3456 18.1922 29.2708 16.2462 29.2708 13.8461C29.2708 16.2462 27.196 18.1922 24.6371 18.1922C22.0782 18.1922 20.0034 16.2462 20.0034 13.8461C20.0034 16.2462 17.9286 18.1922 15.3696 18.1922C12.8107 18.1922 10.7359 16.2462 10.7359 13.8461C10.7319 16.2305 8.6395 18.1922 6.10212 18.1922C3.56786 18.1922 1.47237 16.2329 1.46838 13.8461C1.46207 10.0482 1.46302 10.2761 1.49634 10.1279H38.5104C38.5493 10.3009 38.5383 10.0648 38.5383 13.8461V13.8461Z" fill="#A2D0FF"/>
<path d="M33.1997 4.33906C25.0845 3.29147 16.8943 4.63513 10.27 9.31691C9.52438 9.84393 8.61552 10.1279 7.6819 10.1279H1.49634C1.53469 9.95775 1.26889 10.5603 5.28882 1.85811C5.49174 1.41975 5.95272 1.13574 6.46163 1.13574H33.5451C34.0544 1.13574 34.5152 1.41945 34.7177 1.85781L34.8958 2.24313C35.3948 3.32317 34.443 4.49957 33.1997 4.33906V4.33906Z" fill="#D1E7FF"/>
<path d="M37.26 20.8435V33.5074C37.26 35.1602 35.8264 36.5048 34.0643 36.5048H5.94228C4.18018 36.5048 2.74659 35.1602 2.74659 33.5074V20.8435C2.74659 20.5124 3.03277 20.244 3.38573 20.244C3.73869 20.244 4.02487 20.5124 4.02487 20.8435V33.5074C4.02487 34.4991 4.88499 35.3059 5.94228 35.3059H12.8929V25.1897C12.8929 23.5369 14.3265 22.1923 16.0886 22.1923H23.918C25.6801 22.1923 27.1137 23.5369 27.1137 25.1897V32.908C27.1137 33.239 26.8275 33.5074 26.4745 33.5074C26.1216 33.5074 25.8354 33.239 25.8354 32.908V25.1897C25.8354 24.1981 24.9752 23.3912 23.918 23.3912H16.0886C15.0314 23.3912 14.1712 24.1981 14.1712 25.1897V35.3059H19.3641V25.8641C19.3641 25.533 19.6503 25.2646 20.0033 25.2646C20.3562 25.2646 20.6424 25.533 20.6424 25.8641V35.3059H34.0643C35.1215 35.3059 35.9817 34.4991 35.9817 33.5074V20.8435C35.9817 20.5124 36.2679 20.244 36.6208 20.244C36.9738 20.244 37.26 20.5123 37.26 20.8435ZM4.98357 10.1278C4.98357 10.4588 5.26975 10.7273 5.62271 10.7273C40.3972 10.7273 38.673 10.7856 38.9271 10.6028C39.0599 10.507 39.1467 10.3687 39.1705 10.2107C39.2061 9.96982 39.4355 10.5623 34.9703 0.897243C34.8689 0.677984 34.6386 0.536133 34.3838 0.536133H5.62263C5.36793 0.536133 5.13745 0.678059 5.03622 0.897243L0.881834 9.88942C0.808413 10.0484 0.829105 9.79605 0.829105 13.8469C0.833739 16.5734 3.1991 18.7917 6.10198 18.7917C8.09761 18.7917 9.83917 17.7433 10.7344 16.2022C12.7337 19.6485 18.0002 19.6523 20.0032 16.2045C22.0047 19.6495 27.2687 19.6503 29.2707 16.2045C30.1652 17.7443 31.907 18.7917 33.9044 18.7917C36.8119 18.7917 39.1773 16.5731 39.1773 13.846C39.1773 13.5149 38.8911 13.2465 38.5382 13.2465C38.1852 13.2465 37.899 13.5149 37.899 13.846C37.899 15.9119 36.1071 17.5927 33.9044 17.5927C31.7018 17.5927 29.9098 15.9119 29.9098 13.846C29.9098 13.5149 29.6236 13.2465 29.2707 13.2465C28.9177 13.2465 28.6315 13.5149 28.6315 13.846C28.6315 15.9119 26.8396 17.5927 24.6369 17.5927C22.4343 17.5927 20.6423 15.9119 20.6423 13.846C20.6423 13.5149 20.3562 13.2465 20.0032 13.2465C19.6502 13.2465 19.3641 13.5149 19.3641 13.846C19.3641 15.9119 17.5721 17.5927 15.3695 17.5927C13.2158 17.5927 11.3749 15.9693 11.3749 13.816C11.3749 13.4849 11.0887 13.2165 10.7357 13.2165C10.3828 13.2165 10.0966 13.4849 10.0966 13.816C10.0966 15.9511 8.26714 17.5927 6.10198 17.5927C3.90287 17.5927 2.11081 15.9115 2.10738 13.846V10.252L6.0423 1.73509H33.9643L37.5647 9.5283H5.62271C5.26967 9.5283 4.98357 9.79665 4.98357 10.1278V10.1278Z" fill="#007FFC"/>
</svg>
