<svg width="25" height="37" viewBox="0 0 25 37" fill="none" xmlns="http://www.w3.org/2000/svg">
<path d="M21.5515 1.18457C22.9635 1.18457 24.1087 2.25863 24.1087 3.58302V33.5636C24.1087 34.888 22.9635 35.9621 21.5515 35.9621H3.9712C2.55918 35.9621 1.41406 34.888 1.41406 33.5636V3.58302C1.41406 2.25863 2.55918 1.18457 3.9712 1.18457H21.5515Z" fill="#D1E7FF"/>
<path d="M16.7822 14.0552C17.3943 14.0552 17.9073 14.4876 17.9737 15.058L18.8287 22.4243C18.9062 23.0891 18.3508 23.67 17.6372 23.67H7.88498C7.17138 23.67 6.616 23.0891 6.69351 22.4243L7.54855 15.058C7.61488 14.4876 8.1279 14.0552 8.74002 14.0552H16.7822Z" fill="#B9DCFF"/>
<path d="M21.6724 1.18722C23.7289 1.27693 23.6198 4.18265 21.5611 4.18265H13.2408C8.47441 4.18265 4.61049 7.80678 4.61049 12.2774V35.9621H3.9712C2.55894 35.9621 1.41406 34.8883 1.41406 33.5636V3.58304C1.41406 2.25842 2.55894 1.18459 3.9712 1.18459C4.08692 1.18459 21.5786 1.18309 21.6724 1.18722V1.18722Z" fill="#E8F3FF"/>
<path d="M24.1087 30.7156V33.5637C24.1087 34.8881 22.9635 35.9622 21.5515 35.9622H3.9712C2.55918 35.9622 1.41406 34.8881 1.41406 33.5637V30.7156H24.1087Z" fill="#B9DCFF"/>
<path d="M4.61047 30.7156V33.5726C4.61047 35.5259 1.41406 35.6257 1.41406 33.5637V30.7156H4.61047Z" fill="#D1E7FF"/>
<path d="M16.7824 16.3037C12.9102 16.3037 9.74499 19.0379 9.33632 22.5602C9.26305 23.1916 8.69448 23.67 8.01723 23.67H7.88498C7.17138 23.67 6.616 23.0891 6.69351 22.4243L7.54856 15.058C7.61488 14.4876 8.12791 14.0552 8.74003 14.0552H16.7823C17.3939 14.0552 17.9075 14.4872 17.9736 15.0576C18.0511 15.7241 17.4947 16.3037 16.7824 16.3037Z" fill="#D1E7FF"/>
<path d="M21.5514 0.584961H3.97108C2.20857 0.584961 0.774658 1.92989 0.774658 3.58302V33.5636C0.774658 35.2168 2.20857 36.5617 3.97108 36.5617H21.5514C23.3139 36.5617 24.7478 35.2168 24.7478 33.5636V3.58302C24.7478 1.92989 23.3139 0.584961 21.5514 0.584961ZM21.5514 35.3625H3.97108C2.91362 35.3625 2.05323 34.5556 2.05323 33.5636V3.58302C2.05323 2.59111 2.91362 1.78419 3.97108 1.78419H21.5514C22.6088 1.78419 23.4692 2.59111 23.4692 3.58302V30.1159H5.16973C4.81669 30.1159 4.53045 30.3843 4.53045 30.7155C4.53045 31.0466 4.81669 31.3151 5.16973 31.3151H23.4692V33.5636C23.4692 34.5556 22.6088 35.3625 21.5514 35.3625ZM14.1996 33.1889C14.1996 33.52 13.9134 33.7885 13.5603 33.7885H11.9621C11.6091 33.7885 11.3228 33.52 11.3228 33.1889C11.3228 32.8578 11.6091 32.5893 11.9621 32.5893H13.5603C13.9134 32.5893 14.1996 32.8578 14.1996 33.1889ZM7.88509 24.2697H17.6374C18.7307 24.2697 19.5828 23.3781 19.4645 22.3592L18.6096 14.9933C18.5078 14.1169 17.7222 13.456 16.7824 13.456H16.1906V12.3459C16.1905 10.5723 14.6521 9.12944 12.7612 9.12944C10.8703 9.12944 9.33195 10.5723 9.33195 12.3459V13.4559H8.74013C7.80022 13.4559 7.01478 14.1168 6.91298 14.9933L6.05802 22.3592C5.93967 23.3786 6.79239 24.2697 7.88509 24.2697V24.2697ZM7.32899 22.489L8.18395 15.1231C8.21496 14.8563 8.45397 14.6552 8.74005 14.6552H9.33187V15.5908C9.33187 15.9219 9.61811 16.1904 9.97115 16.1904C10.3242 16.1904 10.6104 15.9219 10.6104 15.5908V12.3459C10.6104 11.2336 11.5752 10.3287 12.7611 10.3287C13.9471 10.3287 14.9119 11.2336 14.9119 12.3459V13.456H12.1466C11.7936 13.456 11.5074 13.7245 11.5074 14.0556C11.5074 14.3868 11.7936 14.6552 12.1466 14.6552H14.9119V15.5908C14.9119 15.9219 15.1981 16.1904 15.5511 16.1904C15.9042 16.1904 16.1904 15.9219 16.1904 15.5908V14.6552H16.7822C17.0683 14.6552 17.3073 14.8564 17.3383 15.1231L18.1933 22.489C18.2293 22.799 17.9718 23.0704 17.6372 23.0704H7.88509C7.55202 23.0704 7.29295 22.8002 7.32899 22.489V22.489Z" fill="#007FFC"/>
</svg>
